<?xml version="1.0" encoding="UTF-8"?>
<svg width="512" height="512" viewBox="0 0 512 512" fill="none" xmlns="http://www.w3.org/2000/svg">
  <!-- Background -->
  <rect width="512" height="512" rx="92" fill="#121212"/>
  
  <!-- Spotify Logo (modified) -->
  <g transform="translate(75, 75) scale(0.7)">
    <path d="M363.24 232.792C290.923 189.091 169.197 184.204 98.6114 209.802C87.1556 213.709 74.9311 207.352 71.0244 195.897C67.1176 184.441 73.4756 172.216 84.93 168.31C166.631 138.638 302.585 144.293 386.11 195.288C396.326 201.094 399.327 214.496 393.522 224.712C387.716 234.927 374.314 237.928 364.099 232.123L363.24 232.792Z" fill="#1DB954"/>
    <path d="M360.781 303.745C354.066 312.157 342.51 314.531 334.097 307.815C274.708 264.847 184.347 252.6 110.936 277.487C101.322 280.7 90.9333 275.544 87.7209 265.93C84.5086 256.316 89.6646 245.927 99.2782 242.715C183.632 213.628 284.42 227.655 353.41 277.061C361.822 283.777 364.197 295.333 357.481 303.745H360.781Z" fill="#1DB954"/>
    <path d="M332.076 372.344C326.791 378.966 317.537 380.861 310.915 375.576C259.511 338.693 195.56 330.167 114.835 350.569C107.175 352.701 99.3423 348.233 97.2111 340.574C95.0799 332.914 99.5472 325.081 107.206 322.95C196.704 300.099 269.009 310.056 328.466 352.422C335.088 357.707 336.983 366.961 331.698 373.583L332.076 372.344Z" fill="#1DB954"/>
  </g>
  
  <!-- Mavrix X overlay -->
  <g transform="translate(300, 320)">
    <!-- X symbol in complementary color -->
    <path d="M142.5,35.7l-35.9-49.4c-3.3-4.5-2.3-10.8,2.2-14.1s10.8-2.3,14.1,2.2L160,19.9l37.1-45.5c3.3-4.5,9.6-5.5,14.1-2.2 s5.5,9.6,2.2,14.1l-35.9,49.4l37.4,51.5c3.3,4.5,2.3,10.8-2.2,14.1c-1.8,1.3-3.9,1.9-5.9,1.9c-3.1,0-6.2-1.5-8.1-4.2L160,52.7 L121.4,99c-1.9,2.7-5,4.2-8.1,4.2c-2,0-4.1-0.6-5.9-1.9c-4.5-3.3-5.5-9.6-2.2-14.1L142.5,35.7z" fill="#FF5733" transform="scale(0.5) translate(-160, -40)"/>
    
    <!-- Mavrix text (small, beneath X) -->
    <text x="0" y="40" font-family="Arial, sans-serif" font-weight="bold" font-size="24" fill="#FFFFFF" text-anchor="middle">MAVRIX</text>
  </g>
</svg> 